<svg width="88" height="38" viewBox="0 0 88 38" fill="none" xmlns="http://www.w3.org/2000/svg">
<path d="M49.7448 0.318287C47.2349 1.01519 45.9885 2.59611 45.9762 5.09829C45.962 8.01194 47.3273 9.34987 51.7053 10.7142C53.8333 11.3769 54.5565 12.5256 53.55 13.6413C52.4075 14.9069 50.1719 14.0861 49.8904 12.2964C49.7509 11.4033 49.7578 11.4059 47.4132 11.5619L45.3352 11.6996L45.4352 12.4818C45.5892 13.6876 46.4215 15.5492 47.1309 16.2752C49.2331 18.4252 55.0225 18.2047 57.0044 15.8975L57.5841 15.2227L57.6954 16.007C58.103 18.893 60.5549 21.6044 63.3756 22.2891L64.2815 22.5096L63.7463 23.3477C61.9803 26.1128 61.9303 31.7677 63.6463 34.7047C66.2725 39.1984 73.6626 39.0681 76.0942 34.4856L76.5467 33.6328V37.7003H88V33.327H81.1599V20.5861H76.5467L76.5377 22.5351C76.5297 24.1273 76.4938 24.4162 76.3391 24.1126C75.4626 22.394 73.7557 20.9659 72.0824 20.5532L71.1806 20.3301L72.0959 19.508C74.943 16.95 76.7163 12.283 76.2608 8.54685C75.0633 -1.27173 63.2322 -1.42375 58.7258 8.32033C58.4353 8.94749 58.1878 9.48111 58.1755 9.5058C58.1631 9.53049 57.7577 9.09173 57.2736 8.53256C56.27 7.37048 55.4638 6.94514 52.7235 6.1339C50.1738 5.37852 49.652 4.8488 50.5089 3.8851C51.3242 2.96903 53.0992 3.56242 53.4989 4.88519C53.7333 5.66005 53.6905 5.65269 56.4011 5.43829L57.9686 5.31398L57.8686 4.56727C57.4059 1.10788 53.7637 -0.79745 49.7437 0.319587L49.7448 0.318287ZM0.988801 8.98561V17.5421H5.602V10.696H6.07085C6.81073 10.696 7.25821 11.3466 8.68471 14.4993L10.0188 17.4459L12.5837 17.4983C13.9943 17.5273 15.1476 17.4996 15.1476 17.4372C15.1476 16.4735 12.2729 10.9126 11.475 10.3331L11.0377 10.0152L11.9203 9.46335C15.1925 7.41552 14.5729 1.5488 10.987 0.629273C10.5344 0.513628 8.24266 0.427002 5.59403 0.427002H0.988801V8.98345V8.98561ZM70.8339 1.9187C78.0334 4.1649 77.3743 16.2396 69.8106 20.648C62.1046 25.1395 55.237 17.766 58.8998 8.93407C61.0368 3.78115 66.5029 0.567769 70.8328 1.91999L70.8339 1.9187ZM8.78072 4.28574C10.4011 5.26504 9.32603 7.07292 7.03103 7.22884L5.60236 7.3263V4.04102L6.99443 4.04362C7.7912 4.04492 8.55463 4.14844 8.78072 4.28487V4.28574ZM68.2874 5.79865C67.0207 6.2006 65.7326 7.73084 65.7315 8.83445C65.7293 10.6376 66.9352 11.2877 68.8323 10.5072C69.9929 10.0299 70.2885 10.0299 70.5034 10.5085C70.8672 11.3223 69.6748 12.1518 68.9791 11.5684C68.6294 11.276 67.3403 12.1981 67.3272 12.7499C67.3069 13.5807 69.0657 13.8951 70.1429 13.2532C73.564 11.2154 72.5926 6.84076 69.0443 8.30387C67.6258 8.88859 67.3211 8.91414 67.3211 8.44377C67.3211 7.70572 68.2859 7.1721 68.707 7.67497C68.8791 7.8807 70.1835 6.84682 70.1835 6.50422C70.1835 5.9927 69.028 5.5613 68.2859 5.79779L68.2874 5.79865ZM63.1524 9.90168C62.3934 10.5583 62.3575 10.3876 63.7496 12.7499C64.6065 14.2031 64.9358 14.9208 64.9032 15.2608C64.8463 15.842 64.301 15.9967 63.9177 15.5397C63.6742 15.2486 63.6108 15.2716 63.0343 15.8624C61.5781 17.3536 63.7916 18.6335 65.4362 17.2523C67.2432 15.7346 67.2461 14.793 65.4496 11.6571C64.0565 9.22426 63.9923 9.17575 63.1517 9.90298L63.1524 9.90168ZM4.7603 20.3998C2.15768 20.8906 0.634079 22.7097 0.613788 25.3505C0.593498 28.045 2.05478 29.58 5.67446 30.6628C7.89301 31.3268 8.62347 31.8335 8.62347 32.7067C8.62347 35.166 4.94074 34.92 4.55124 32.4352C4.41464 31.568 4.43203 31.5728 2.08304 31.7248L0 31.86L0.103989 32.6396C0.579005 36.2138 2.31747 37.7011 6.19078 37.8462C9.26226 37.9606 10.3181 37.605 11.6591 36.002L12.5772 34.9044L12.9146 35.4489C14.8661 38.6038 21.4583 38.816 23.6229 35.7923C24.2559 34.9092 24.966 33.2451 25.0385 32.4789C25.0896 31.9392 25.0751 31.9297 23.1461 31.2302L21.2029 30.5251L20.942 31.4632C20.0532 34.661 16.6977 34.6974 15.9607 31.5182C15.7099 30.4376 15.7404 27.8566 16.0176 26.7443C16.6861 24.0559 19.5097 23.5041 20.6554 25.8391C21.1333 26.8136 21.005 26.7954 23.1736 26.2094C25.2381 25.6515 25.1494 25.7503 24.6787 24.5379C22.8116 19.7358 16.5353 18.6093 13.2073 22.4767L12.279 23.556L11.8939 22.7703C10.9341 20.8113 7.90642 19.8051 4.76248 20.3998H4.7603ZM48.7103 20.4046C46.9483 20.7702 45.2076 22.0955 44.2243 23.8189C43.9612 24.2807 43.9543 24.243 43.946 22.4386L43.9377 20.5843H39.3245V26.4792H34.7113V20.5843H30.0981V37.6985H34.7113V30.8525H39.3245V37.6985H43.9377V33.8294L44.4359 34.7273C46.5088 38.4669 52.9195 39.1235 55.837 35.8941C59.2132 32.158 58.5508 23.6587 54.7007 21.3103C53.2148 20.4037 50.6071 20.0091 48.7096 20.4029L48.7103 20.4046ZM7.34698 23.9108C7.61293 24.0754 7.9249 24.521 8.09411 24.9793L8.3847 25.7663L11.4928 25.5874L11.391 26.5572C11.2565 27.8401 11.1964 27.8886 10.3047 27.4174C9.88475 27.1956 8.70971 26.7655 7.69192 26.4597C5.28387 25.7386 4.98422 25.5839 4.86103 24.9979C4.63276 23.9138 6.22557 23.2169 7.34843 23.9112L7.34698 23.9108ZM51.4383 24.583C53.7942 25.3652 54.2714 31.8288 52.0865 33.3659C50.4549 34.5133 48.3904 33.5366 47.9063 31.3866C46.9443 27.1146 48.7266 23.6829 51.4383 24.583ZM70.6708 24.5782C73.4079 25.4869 73.3521 32.8397 70.6016 33.7254C68.3903 34.4366 66.9189 32.5997 66.9301 29.1425C66.9424 25.5502 68.366 23.8129 70.6712 24.5791L70.6708 24.5782Z" fill="white"/>
</svg>
